<svg xmlns="http://www.w3.org/2000/svg"
  xmlns:xlink="http://www.w3.org/1999/xlink" version="1.1" baseProfile="basic" x="0px" y="0px" viewBox="0 0 90 112.5" xml:space="preserve">
  <g>
    <path fill="#FFFFFF" d="M61.627,28.874c0.33-1.664-0.017-3.301-0.977-4.612c-0.959-1.311-2.416-2.136-4.103-2.324   c-1.661-0.184-3.333,0.272-4.718,1.286L23.774,43.77l0.138-7.229c0.031-1.635-0.591-3.149-1.751-4.261   c-1.202-1.153-2.815-1.732-4.55-1.626c-3.462,0.209-6.331,3.13-6.396,6.513l-0.501,26.379c-0.107,4.719,1.265,9.164,3.969,12.855   C18.823,82.053,25.385,85,32.244,85c5.07-0.001,10.304-1.612,14.837-4.931l11.761-8.613c2.893-2.118,3.643-6.031,1.673-8.722   c-0.953-1.301-2.395-2.122-4.065-2.317l0.252-0.185c1.385-1.014,2.327-2.474,2.651-4.11c0.33-1.664-0.017-3.301-0.977-4.612   c-1.167-1.594-3.033-2.4-4.961-2.357c1.231-2.092,1.247-4.7-0.189-6.662c-0.953-1.3-2.395-2.121-4.064-2.318l9.816-7.188   C60.362,31.97,61.304,30.51,61.627,28.874z M57.927,31.55l-13.522,9.903l-7.91,5.793c-0.396,0.29-0.482,0.846-0.192,1.242   c0.289,0.396,0.845,0.483,1.242,0.192l7.91-5.793c1.025-0.75,2.265-1.088,3.471-0.954c1.186,0.132,2.204,0.703,2.866,1.607   c1.39,1.9,0.812,4.698-1.29,6.238l-7.911,5.793c-0.396,0.29-0.482,0.846-0.192,1.242c0.081,0.111,0.186,0.191,0.299,0.252   c0.034,0.018,0.071,0.025,0.107,0.039c0.084,0.032,0.168,0.055,0.257,0.06c0.019,0.001,0.036,0.013,0.055,0.013   c0.043,0,0.085-0.014,0.128-0.02c0.035-0.005,0.069-0.007,0.104-0.016c0.102-0.028,0.201-0.069,0.292-0.136l6.964-5.1   c2.1-1.537,4.945-1.246,6.337,0.654c0.662,0.904,0.899,2.046,0.667,3.217c-0.237,1.198-0.932,2.27-1.957,3.021l-6.829,5.001   c-0.396,0.29-0.482,0.846-0.192,1.242c0.174,0.238,0.443,0.364,0.718,0.364c0.182,0,0.366-0.056,0.524-0.172l2.869-2.101   c0.001,0,0.001,0,0.002-0.001c1.025-0.751,2.262-1.084,3.471-0.954c1.186,0.133,2.204,0.703,2.866,1.607   c1.391,1.901,0.812,4.699-1.29,6.238L46.03,78.635c-9.873,7.23-23.291,5.758-29.913-3.284c-2.47-3.373-3.724-7.441-3.626-11.769   L12.993,37.2c0.047-2.477,2.167-4.618,4.725-4.773c1.234-0.07,2.373,0.328,3.213,1.134c0.798,0.766,1.225,1.812,1.204,2.945   l-0.172,9.024c-0.006,0.338,0.179,0.65,0.479,0.806c0.3,0.154,0.661,0.127,0.935-0.072L52.88,24.658   c1.025-0.75,2.262-1.088,3.471-0.953c1.186,0.132,2.204,0.703,2.866,1.607c0.662,0.904,0.899,2.046,0.667,3.217   C59.647,29.726,58.952,30.799,57.927,31.55z"/>
    <path fill="#FFFFFF" d="M58.721,46.143c-0.491,0-0.889-0.397-0.889-0.888c0-0.491,0.397-0.889,0.889-0.889c10.363,0,18.793-8.431,18.793-18.794   S69.083,6.777,58.721,6.777c-10.364,0-18.794,8.431-18.794,18.794c0,0.491-0.398,0.889-0.889,0.889s-0.889-0.398-0.889-0.889   C38.149,14.228,47.377,5,58.721,5c11.343,0,20.571,9.228,20.571,20.571C79.292,36.915,70.063,46.143,58.721,46.143z"/>
    <path fill="#FFFFFF" d="M60.857,37.599c-0.418,0-0.791-0.296-0.872-0.722c-0.092-0.482,0.225-0.948,0.706-1.04   c4.913-0.937,8.479-5.255,8.479-10.265c0-5.762-4.688-10.451-10.45-10.451c-3.937,0-7.501,2.177-9.302,5.682   c-0.225,0.436-0.757,0.61-1.197,0.384c-0.437-0.224-0.608-0.76-0.384-1.197c2.107-4.1,6.277-6.647,10.883-6.647   c6.743,0,12.228,5.486,12.228,12.228c0,5.863-4.174,10.915-9.924,12.012C60.969,37.593,60.912,37.599,60.857,37.599z"/>
  </g>
</svg>
